# This file uses centimeters as units for non-parametric coordinates.

v 1.118058 -1.529243 4.657413
v 1.950877 -1.529243 4.657413
v 1.118058 -1.375801 4.657413
v 1.950877 -1.375801 4.657413
v 1.118058 -1.375801 3.657413
v 1.950877 -1.375801 3.657413
v 1.118058 -1.529243 3.657413
v 1.950877 -1.529243 3.657413
v 1.950877 -1.405878 4.657413
v 1.104735 -1.405878 4.657413
v 1.104735 -1.405878 3.657413
v 1.950877 -1.405878 3.657413
v 1.950877 -1.499400 4.657413
v 1.104735 -1.499400 4.657413
v 1.104735 -1.499400 3.657413
v 1.950877 -1.499400 3.657413
v 1.933662 -1.499400 4.646935
v 1.135274 -1.499400 4.646935
v 1.933662 -1.405878 4.646935
v 1.135274 -1.405878 4.646935
v 1.135274 -1.405878 3.667891
v 1.933662 -1.405878 3.667891
v 1.933662 -1.499400 3.667891
v 1.135274 -1.499400 3.667891
v 1.104735 -1.447666 3.657413
v 1.104735 -1.447666 4.657413
v 1.135274 -1.447666 4.646935
v 1.933662 -1.447666 4.646935
v 1.933662 -1.447666 3.667891
v 1.135274 -1.447666 3.667891
vt 0.442260 0.650331
vt 0.635410 0.654448
vt 0.640156 0.660384
vt 0.436243 0.656374
vt 0.436387 0.419744
vt 0.634332 0.415661
vt 0.634322 0.655901
vt 0.436300 0.651816
vt 0.436276 0.416116
vt 0.640134 0.412111
vt 0.635428 0.418050
vt 0.442340 0.422166
vt 0.430263 0.413431
vt 0.638785 0.409899
vt 0.430228 0.658116
vt 0.638808 0.661651
vt 0.428444 0.670330
vt 0.707135 0.418154
vt 0.639584 0.406611
vt 0.438703 0.408685
vt 0.419895 0.663019
vt 0.422272 0.662136
vt 0.438670 0.662868
vt 0.639567 0.664960
vt 0.703894 0.420210
vt 0.427958 0.400019
vt 0.641083 0.667187
vt 0.444438 0.669325
vt 0.444466 0.402720
vt 0.641092 0.402715
vt 0.946530 0.426758
vt 0.706969 0.424725
vt 0.945454 0.424589
vt 0.706023 0.426712
vt 0.705929 0.420165
vt 0.945388 0.418017
vt 0.707363 0.410023
vt 0.946670 0.412084
vt 0.705807 0.412040
vt 0.945296 0.409885
vt 0.419816 0.408542
vt 0.429074 0.670935
vt 0.420894 0.409925
vt 0.429013 0.400657
vt 0.947508 0.420165
vt 0.947385 0.412040
vt 0.946591 0.420210
vt 0.703834 0.426758
vt 0.947602 0.426712
vt 0.703974 0.412084
vn 0.000000 0.000000 1.000000
vn 0.000000 0.000000 1.000000
vn 0.000000 0.000000 1.000000
vn 0.000000 0.000000 1.000000
vn 0.000000 1.000000 0.000000
vn 0.000000 1.000000 0.000000
vn 0.000000 1.000000 0.000000
vn 0.000000 1.000000 0.000000
vn 0.000000 0.000000 -1.000000
vn 0.000000 0.000000 -1.000000
vn 0.000000 0.000000 -1.000000
vn 0.000000 0.000000 -1.000000
vn 0.000000 -1.000000 0.000000
vn 0.000000 -1.000000 0.000000
vn 0.000000 -1.000000 0.000000
vn 0.000000 -1.000000 0.000000
vn 1.000000 0.000000 0.000000
vn 1.000000 0.000000 0.000000
vn 1.000000 0.000000 0.000000
vn 1.000000 0.000000 0.000000
vn -0.913138 -0.407650 0.000000
vn -0.913138 -0.407650 0.000000
vn -0.986925 -0.161177 0.000000
vn -0.986925 -0.161177 0.000000
vn 0.000000 0.000000 1.000000
vn 0.000000 0.000000 1.000000
vn 0.000000 0.000000 1.000000
vn 0.000000 0.000000 1.000000
vn -0.983247 0.182279 0.000000
vn -0.983247 0.182279 0.000000
vn -0.914319 0.404994 0.000000
vn -0.914319 0.404994 0.000000
vn 0.000000 0.000000 -1.000000
vn 0.000000 0.000000 -1.000000
vn 0.000000 0.000000 -1.000000
vn 0.000000 0.000000 -1.000000
vn 1.000000 0.000000 0.000000
vn 1.000000 0.000000 0.000000
vn 1.000000 0.000000 0.000000
vn 1.000000 0.000000 0.000000
vn 0.000000 0.000000 1.000000
vn 0.000000 0.000000 1.000000
vn 0.000000 0.000000 1.000000
vn 0.000000 0.000000 1.000000
vn -1.000000 0.000000 0.000000
vn -1.000000 0.000000 0.000000
vn 0.000000 0.000000 -1.000000
vn 0.000000 0.000000 -1.000000
vn 0.000000 0.000000 -1.000000
vn 0.000000 0.000000 -1.000000
vn 1.000000 0.000000 0.000000
vn 1.000000 0.000000 0.000000
vn 1.000000 0.000000 0.000000
vn 1.000000 0.000000 0.000000
vn 0.000000 1.000000 -0.000000
vn 0.000000 1.000000 -0.000000
vn 0.000000 1.000000 -0.000000
vn 0.000000 1.000000 -0.000000
vn 0.000000 -1.000000 -0.000000
vn 0.000000 -1.000000 -0.000000
vn 0.000000 -1.000000 -0.000000
vn 0.000000 -1.000000 -0.000000
vn 0.324540 0.000000 0.945872
vn 0.324540 0.000000 0.945872
vn 0.324540 0.000000 0.945872
vn 0.324540 0.000000 0.945872
vn 0.000000 -1.000000 0.000000
vn 0.000000 -1.000000 0.000000
vn 0.000000 -1.000000 0.000000
vn 0.000000 -1.000000 0.000000
vn 0.000000 1.000000 0.000000
vn 0.000000 1.000000 0.000000
vn 0.000000 1.000000 0.000000
vn 0.000000 1.000000 0.000000
vn 0.324540 0.000000 -0.945872
vn 0.324540 0.000000 -0.945872
vn 0.324540 0.000000 -0.945872
vn 0.324540 0.000000 -0.945872
vn 0.000000 1.000000 0.000000
vn 0.000000 1.000000 0.000000
vn 0.000000 1.000000 0.000000
vn 0.000000 1.000000 0.000000
vn 0.000000 -1.000000 0.000000
vn 0.000000 -1.000000 0.000000
vn 0.000000 -1.000000 0.000000
vn 0.000000 -1.000000 0.000000
vn 0.324540 0.000000 0.945872
vn 0.324540 0.000000 0.945872
vn 0.000000 0.000000 1.000000
vn 0.000000 0.000000 1.000000
vn 1.000000 0.000000 0.000000
vn 1.000000 0.000000 0.000000
vn 0.000000 0.000000 -1.000000
vn 0.000000 0.000000 -1.000000
vn 0.324540 0.000000 -0.945872
vn 0.324540 0.000000 -0.945872
s off
f 1/1/1 2/2/2 13/3/3 14/4/4
f 3/5/5 4/6/6 6/7/7 5/8/8
f 15/9/9 16/10/10 8/11/11 7/12/12
f 7/12/13 8/11/14 2/2/15 1/1/16
f 2/2/17 8/11/18 16/10/19 13/3/20
s 1
f 7/12/21 1/1/22 14/4/23 15/9/24
s off
f 10/13/25 9/14/26 4/6/27 3/5/28
s 1
f 11/15/29 10/13/30 3/5/31 5/8/32
s off
f 5/8/33 6/7/34 12/16/35 11/15/36
f 9/14/37 12/16/38 6/7/39 4/6/40
s 3
f 27/18/41 28/47/42 19/31/43 20/32/44
s 1
f 25/21/45 26/41/46 10/13/30 11/15/29
s 4
f 21/33/47 22/34/48 29/35/49 30/36/50
s 5
f 28/25/51 29/45/52 22/49/53 19/48/54
s off
f 14/4/55 13/3/56 17/27/57 18/28/58
f 9/14/59 10/13/60 20/20/61 19/19/62
s 6
f 10/13/63 26/41/64 27/44/65 20/20/66
s off
f 11/15/67 12/16/68 22/24/69 21/23/70
f 16/10/71 15/9/72 24/29/73 23/30/74
s 7
f 30/42/75 25/21/76 11/15/77 21/23/78
s off
f 13/3/79 16/10/80 23/30/81 17/27/82
f 12/16/83 9/14/84 19/19/85 22/24/86
s 1
f 15/9/24 14/4/23 26/22/46 25/43/45
s 6
f 27/17/65 26/22/64 14/4/87 18/28/88
s 3
f 18/37/89 17/38/90 28/47/42 27/18/41
s 5
f 17/50/91 23/46/92 29/45/52 28/25/51
s 4
f 30/36/50 29/35/49 23/39/93 24/40/94
s 7
f 15/9/95 25/43/76 30/26/75 24/29/96
